{
    "asset" : {
        "generator" : "Khronos glTF Blender I/O v3.3.32",
        "version" : "2.0"
    },
    "scene" : 0,
    "scenes" : [
        {
            "name" : "Scene",
            "nodes" : [
                0,
                1
            ]
        }
    ],
    "nodes" : [
        {
            "camera" : 0,
            "name" : "Camera",
            "rotation" : [
                -0.2265884429216385,
                0.13187751173973083,
                0.030981004238128662,
                0.9645237922668457
            ],
            "translation" : [
                6.616647243499756,
                14.079517364501953,
                23.824499130249023
            ]
        },
        {
            "mesh" : 0,
            "name" : "Geometry",
            "rotation" : [
                -0.09448917210102081,
                -0.7725757360458374,
                0.010106943547725677,
                0.6277709603309631
            ],
            "translation" : [
                -8.691405296325684,
                -4.962827205657959,
                -3.0727686882019043
            ]
        }
    ],
    "cameras" : [
        {
            "name" : "Camera",
            "perspective" : {
                "aspectRatio" : 1.7777777777777777,
                "yfov" : 0.39959652046304894,
                "zfar" : 100,
                "znear" : 0.10000000149011612
            },
            "type" : "perspective"
        }
    ],
    "materials" : [
        {
            "doubleSided" : true,
            "name" : "Material",
            "pbrMetallicRoughness" : {
                "baseColorTexture" : {
                    "index" : 0
                },
                "metallicFactor" : 0,
                "roughnessFactor" : 0.4000000059604645
            }
        }
    ],
    "meshes" : [
        {
            "name" : "Geometry",
            "primitives" : [
                {
                    "attributes" : {
                        "POSITION" : 0,
                        "NORMAL" : 1,
                        "TEXCOORD_0" : 2
                    },
                    "indices" : 3,
                    "material" : 0
                }
            ]
        }
    ],
    "textures" : [
        {
            "sampler" : 0,
            "source" : 0
        }
    ],
    "images" : [
        {
            "mimeType" : "image/avif",
            "name" : "lightmap",
            "uri" : "lightmap.avif"
        }
    ],
    "accessors" : [
        {
            "bufferView" : 0,
            "componentType" : 5126,
            "count" : 8598,
            "max" : [
                8.364763259887695,
                12.310372352600098,
                -2.1734542846679688
            ],
            "min" : [
                -4.18402099609375,
                4.1467976570129395,
                -14.962907791137695
            ],
            "type" : "VEC3"
        },
        {
            "bufferView" : 1,
            "componentType" : 5126,
            "count" : 8598,
            "type" : "VEC3"
        },
        {
            "bufferView" : 2,
            "componentType" : 5126,
            "count" : 8598,
            "type" : "VEC2"
        },
        {
            "bufferView" : 3,
            "componentType" : 5123,
            "count" : 41775,
            "type" : "SCALAR"
        }
    ],
    "bufferViews" : [
        {
            "buffer" : 0,
            "byteLength" : 103176,
            "byteOffset" : 0
        },
        {
            "buffer" : 0,
            "byteLength" : 103176,
            "byteOffset" : 103176
        },
        {
            "buffer" : 0,
            "byteLength" : 68784,
            "byteOffset" : 206352
        },
        {
            "buffer" : 0,
            "byteLength" : 83550,
            "byteOffset" : 275136
        }
    ],
    "samplers" : [
        {
            "magFilter" : 9729,
            "minFilter" : 9987
        }
    ],
    "buffers" : [
        {
            "byteLength" : 358688,
            "uri" : "rocks.bin"
        }
    ]
}
