{
    "asset" : {
        "generator" : "Khronos glTF Blender I/O v3.3.32",
        "version" : "2.0"
    },
    "scene" : 0,
    "scenes" : [
        {
            "name" : "Scene",
            "nodes" : [
                0,
                1
            ]
        }
    ],
    "nodes" : [
        {
            "camera" : 0,
            "name" : "Camera",
            "rotation" : [
                -0.05068643018603325,
                0.9344519972801208,
                0.31984636187553406,
                0.1480833739042282
            ],
            "translation" : [
                3.8384015560150146,
                11.039701461791992,
                -12.799519538879395
            ]
        },
        {
            "mesh" : 0,
            "name" : "Castle",
            "rotation" : [
                0,
                0.9238796234130859,
                0,
                0.38268348574638367
            ],
            "scale" : [
                2,
                2,
                2
            ],
            "translation" : [
                3.1514720916748047,
                3.700000047683716,
                3.1514720916748047
            ]
        }
    ],
    "cameras" : [
        {
            "name" : "Camera",
            "perspective" : {
                "aspectRatio" : 1.7777777777777777,
                "yfov" : 0.6718132140318144,
                "zfar" : 100,
                "znear" : 0.10000000149011612
            },
            "type" : "perspective"
        }
    ],
    "materials" : [
        {
            "doubleSided" : true,
            "name" : "Material",
            "pbrMetallicRoughness" : {
                "baseColorTexture" : {
                    "index" : 0
                },
                "metallicFactor" : 0,
                "roughnessFactor" : 0.8999999761581421
            }
        }
    ],
    "meshes" : [
        {
            "name" : "Castle",
            "primitives" : [
                {
                    "attributes" : {
                        "POSITION" : 0,
                        "TEXCOORD_0" : 1
                    },
                    "indices" : 2,
                    "material" : 0
                }
            ]
        }
    ],
    "textures" : [
        {
            "sampler" : 0,
            "source" : 0
        }
    ],
    "images" : [
        {
            "mime" : "image/avif",
            "name" : "lightmap",
            "uri" : "lightmap.avif"
        }
    ],
    "accessors" : [
        {
            "bufferView" : 0,
            "componentType" : 5126,
            "count" : 2876,
            "max" : [
                5.75685453414917,
                0.10000002384185791,
                3.5284273624420166
            ],
            "min" : [
                -1.2999999523162842,
                -1.8500001430511475,
                -3.5284273624420166
            ],
            "type" : "VEC3"
        },
        {
            "bufferView" : 1,
            "componentType" : 5126,
            "count" : 2876,
            "type" : "VEC2"
        },
        {
            "bufferView" : 2,
            "componentType" : 5123,
            "count" : 4182,
            "type" : "SCALAR"
        }
    ],
    "bufferViews" : [
        {
            "buffer" : 0,
            "byteLength" : 34512,
            "byteOffset" : 0
        },
        {
            "buffer" : 0,
            "byteLength" : 23008,
            "byteOffset" : 34512
        },
        {
            "buffer" : 0,
            "byteLength" : 8364,
            "byteOffset" : 57520
        }
    ],
    "samplers" : [
        {
            "magFilter" : 9729,
            "minFilter" : 9987
        }
    ],
    "buffers" : [
        {
            "byteLength" : 65884,
            "uri" : "castle.bin"
        }
    ]
}
