{
    "asset" : {
        "generator" : "Khronos glTF Blender I/O v0.9.36",
        "version" : "2.0"
    },
    "scene" : 0,
    "scenes" : [
        {
            "name" : "Scene",
            "nodes" : [
                1,
                2
            ]
        }
    ],
    "nodes" : [
        {
            "camera" : 0,
            "name" : "Camera",
            "rotation" : [
                -0.7071067690849304,
                0,
                0,
                0.7071067690849304
            ]
        },
        {
            "children" : [
                0
            ],
            "rotation" : [
                0.5914059281349182,
                0.16795258224010468,
                -0.1370425522327423,
                0.7766919136047363
            ],
            "translation" : [
                2.4843358993530273,
                1.5311685800552368,
                5.2698283195495605
            ]
        },
        {
            "mesh" : 0
        }
    ],
    "cameras" : [
        {
            "perspective" : {
                "yfov" : 0.4,
                "zfar" : 100,
                "znear" : 0.1
            },
            "type" : "perspective"
        }
    ],
    "materials" : [
        {
            "doubleSided" : true,
            "normalTexture" : {
                "index" : 0,
                "texCoord" : 0
            },
            "pbrMetallicRoughness" : {
                "baseColorTexture" : {
                    "index" : 1,
                    "texCoord" : 0
                },
                "metallicRoughnessTexture" : {
                    "index" : 2,
                    "texCoord" : 0
                }
            }
        }
    ],
    "meshes" : [
        {
            "primitives" : [
                {
                    "attributes" : {
                        "POSITION" : 0,
                        "NORMAL" : 1,
                        "TEXCOORD_0" : 2
                    },
                    "indices" : 3,
                    "material" : 0
                }
            ]
        }
    ],
    "textures" : [
        {
            "source" : 0
        },
        {
            "source" : 1
        },
        {
            "source" : 2
        }
    ],
    "images" : [
        {
            "mimeType" : "image/png",
            "uri" : "normal.png"
        },
        {
            "mimeType" : "image/png",
            "uri" : "albedo.png"
        },
        {
            "mimeType" : "image/png",
            "uri" : "metallic-roughness.png"
        }
    ],
    "accessors" : [
        {
            "bufferView" : 0,
            "componentType" : 5126,
            "count" : 556,
            "max" : [
                1.3671875,
                0.984375,
                0.8515625
            ],
            "min" : [
                -1.3671875,
                -0.984375,
                -0.8515625
            ],
            "type" : "VEC3"
        },
        {
            "bufferView" : 1,
            "componentType" : 5126,
            "count" : 556,
            "type" : "VEC3"
        },
        {
            "bufferView" : 2,
            "componentType" : 5126,
            "count" : 556,
            "type" : "VEC2"
        },
        {
            "bufferView" : 3,
            "componentType" : 5123,
            "count" : 2904,
            "type" : "SCALAR"
        }
    ],
    "bufferViews" : [
        {
            "buffer" : 0,
            "byteLength" : 6672,
            "byteOffset" : 0
        },
        {
            "buffer" : 0,
            "byteLength" : 6672,
            "byteOffset" : 6672
        },
        {
            "buffer" : 0,
            "byteLength" : 4448,
            "byteOffset" : 13344
        },
        {
            "buffer" : 0,
            "byteLength" : 5808,
            "byteOffset" : 17792
        }
    ],
    "buffers" : [
        {
            "byteLength" : 23600,
            "uri" : "monkey.bin"
        }
    ]
}
