{
	"asset":{
		"generator":"Khronos glTF Blender I/O v3.6.6",
		"version":"2.0"
	},
	"scene":0,
	"scenes":[
		{
			"name":"Scene",
			"nodes":[
				0,
				1,
				2,
				3,
				4
			]
		}
	],
	"nodes":[
		{
			"mesh":0,
			"name":"Plane"
		},
		{
			"camera":0,
			"name":"Camera",
			"rotation":[
				-0.04361940175294876,
				0,
				0,
				0.9990482330322266
			],
			"translation":[
				0,
				2,
				10
			]
		},
		{
			"mesh":1,
			"name":"Cube",
			"translation":[
				0,
				0.5,
				0
			]
		},
		{
			"name":"Start",
			"translation":[
				0,
				2.5,
				0
			]
		},
		{
			"name":"End",
			"translation":[
				0,
				0.5,
				0
			]
		}
	],
	"cameras":[
		{
			"name":"Camera.001",
			"perspective":{
				"aspectRatio":1.7777777777777777,
				"yfov":0.4,
				"zfar":1000,
				"znear":0.1
			},
			"type":"perspective"
		}
	],
	"materials":[
		{
			"doubleSided":true,
			"name":"PlaneMaterial",
			"pbrMetallicRoughness":{
				"baseColorTexture":{
					"index":0
				},
				"baseColorFactor":[
					0.8,
					0.8,
					0.8,
					1
				],
				"metallicFactor":0,
				"roughnessFactor":0.5
			}
		},
		{
			"doubleSided":true,
			"name":"CubeMaterial",
			"pbrMetallicRoughness":{
				"baseColorTexture":{
					"index":0
				},
				"baseColorFactor":[
					0.8,
					0.3,
					0.2,
					1
				],
				"metallicFactor":0,
				"roughnessFactor":0.5
			}
		}
	],
	"meshes":[
		{
			"name":"Plane",
			"primitives":[
				{
					"attributes":{
						"POSITION":0,
						"TEXCOORD_0":1,
						"NORMAL":2,
						"TANGENT":3
					},
					"indices":4,
					"material":0
				}
			]
		},
		{
			"name":"Cube.001",
			"primitives":[
				{
					"attributes":{
						"POSITION":5,
						"TEXCOORD_0":6,
						"NORMAL":7,
						"TANGENT":8
					},
					"indices":9,
					"material":1
				}
			]
		}
	],
	"accessors":[
		{
			"bufferView":0,
			"componentType":5126,
			"count":4,
			"max":[
				3,
				0,
				3
			],
			"min":[
				-3,
				0,
				-3
			],
			"type":"VEC3"
		},
		{
			"bufferView":1,
			"componentType":5126,
			"count":4,
			"type":"VEC2"
		},
		{
			"bufferView":2,
			"componentType":5126,
			"count":4,
			"type":"VEC3"
		},
		{
			"bufferView":3,
			"componentType":5126,
			"count":4,
			"type":"VEC4"
		},
		{
			"bufferView":4,
			"componentType":5123,
			"count":6,
			"type":"SCALAR"
		},
		{
			"bufferView":5,
			"componentType":5126,
			"count":24,
			"max":[
				0.5,
				0.5,
				0.5
			],
			"min":[
				-0.5,
				-0.5,
				-0.5
			],
			"type":"VEC3"
		},
		{
			"bufferView":6,
			"componentType":5126,
			"count":24,
			"type":"VEC2"
		},
		{
			"bufferView":7,
			"componentType":5126,
			"count":24,
			"type":"VEC3"
		},
		{
			"bufferView":8,
			"componentType":5126,
			"count":24,
			"type":"VEC4"
		},
		{
			"bufferView":9,
			"componentType":5123,
			"count":36,
			"type":"SCALAR"
		}
	],
	"bufferViews":[
		{
			"buffer":0,
			"byteLength":48,
			"byteOffset":0,
			"target":34962
		},
		{
			"buffer":0,
			"byteLength":32,
			"byteOffset":48,
			"target":34962
		},
		{
			"buffer":0,
			"byteLength":48,
			"byteOffset":80,
			"target":34962
		},
		{
			"buffer":0,
			"byteLength":64,
			"byteOffset":128,
			"target":34962
		},
		{
			"buffer":0,
			"byteLength":12,
			"byteOffset":192,
			"target":34963
		},
		{
			"buffer":0,
			"byteLength":288,
			"byteOffset":204,
			"target":34962
		},
		{
			"buffer":0,
			"byteLength":192,
			"byteOffset":492,
			"target":34962
		},
		{
			"buffer":0,
			"byteLength":288,
			"byteOffset":684,
			"target":34962
		},
		{
			"buffer":0,
			"byteLength":384,
			"byteOffset":972,
			"target":34962
		},
		{
			"buffer":0,
			"byteLength":72,
			"byteOffset":1356,
			"target":34963
		}
	],
	"buffers":[
		{
			"byteLength":1428,
			"uri":"scene.bin"
		}
	],
	"images":[
		{
			"uri":"checkerboard.png",
			"mimeType":"image/png"
		}
	],
	"samplers":[
		{
            "magFilter": 9728,
            "minFilter": 9728,
            "wrapS": 10497,
            "wrapT": 10497
		}
	],
	"textures":[
		{
			"source":0,
			"sampler":0
		}
	]
}
